# This file uses centimeters as units for non-parametric coordinates.

mtllib level.mtl
g default
v 9.000000 0.000000 -46.000000
v 13.000000 -0.000001 -46.000000
v 9.000000 0.000000 -52.000000
v 13.000000 0.000000 -52.000000
v 9.000000 0.000000 -56.000000
v 13.000000 0.000000 -56.000000
v 17.000000 0.000000 -52.000000
v 17.000000 0.000000 -56.000000
v 9.000000 -0.000000 -70.000000
v 13.000000 0.000000 -70.000000
v 4.000000 0.000000 -36.000000
v 9.000000 0.000000 -36.000000
v 4.000000 0.000000 -46.000000
v 13.000000 0.000000 -36.000000
v 18.000000 -0.000000 -36.000000
v 18.000000 -0.000000 -46.000000
v -13.000000 0.000000 -36.000000
v -2.000000 0.000000 -36.000000
v -13.000000 0.000000 -46.000000
v -2.000000 0.000000 -46.000000
v -9.000000 0.000000 -46.000000
v -9.000000 0.000000 -36.000000
v -5.000000 0.000000 -46.000000
v -5.000000 0.000000 -36.000000
v -2.000000 0.000000 -0.000000
v 2.000000 0.000000 -0.000000
v -2.000000 0.000000 -20.000000
v 2.000000 0.000000 -20.000000
v -13.000000 0.000000 -70.000000
v -13.000000 0.000000 -94.000000
v 13.000000 0.000000 -94.000000
v -2.000000 0.000000 -94.000000
v -2.000000 0.000000 -70.000000
v 2.000000 0.000000 -94.000000
v 2.000000 0.000000 -70.000000
v 2.000000 -0.000000 -36.000000
v 18.000000 0.000000 -20.000000
v -13.000000 0.000000 -20.000000
v -9.000000 0.000000 -20.000000
v -5.000000 0.000000 -20.000000
v 9.000000 0.000000 -20.000000
v 13.000000 0.000000 -20.000000
v 4.000000 0.000000 -20.000000
v 9.000000 0.000000 -94.000000
v 9.000000 5.000000 -46.000000
v 9.000000 5.000000 -52.000000
v 13.000000 5.000000 -46.000000
v 13.000000 5.000000 -52.000000
v 9.000000 5.000000 -56.000000
v 17.000000 5.000000 -52.000000
v 13.000000 5.000000 -56.000000
v 17.000000 5.000000 -56.000000
v 9.000000 5.000000 -70.000000
v 13.000000 5.000000 -70.000000
v 4.000000 5.000000 -36.000000
v 9.000000 5.000000 -36.000000
v 4.000000 5.000000 -46.000000
v 13.000000 5.000000 -36.000000
v 18.000000 5.000000 -36.000000
v 18.000000 5.000000 -46.000000
v -13.000000 5.000000 -36.000000
v -9.000001 5.000001 -36.000000
v -13.000000 5.000000 -46.000000
v -2.000000 5.000001 -36.000000
v -2.000000 5.000000 -46.000000
v -9.000000 5.000000 -46.000000
v -5.000000 5.000000 -46.000000
v -5.000000 5.000000 -36.000000
v -2.000000 5.000000 -0.000000
v -2.000000 5.000000 -20.000000
v 2.000000 5.000000 0.000000
v 2.000000 5.000000 -20.000000
v -13.000000 5.000000 -70.000000
v -2.000000 5.000000 -70.000000
v -13.000000 5.000000 -94.000000
v 13.000000 5.000000 -94.000000
v -2.000000 5.000000 -94.000000
v 2.000000 5.000000 -70.000000
v 2.000000 5.000000 -94.000000
v 9.000000 5.000000 -94.000000
v 2.000000 5.000000 -36.000000
v 4.000000 5.000000 -20.000000
v 18.000000 5.000000 -20.000000
v -5.000000 5.000000 -20.000000
v -13.000000 5.000000 -20.000000
v -9.000000 5.000000 -20.000000
v 9.000000 5.000000 -20.000000
v 13.000000 5.000000 -20.000000
vt 0.000000 0.000000
vt 1.000000 0.000000
vt 0.000000 1.000000
vt 1.000000 1.000000
vt 0.000000 0.000000
vt 1.000000 0.000000
vt 1.000000 1.000000
vt 0.000000 1.000000
vt 0.000000 0.000000
vt 1.000000 0.000000
vt 1.000000 1.000000
vt 0.000000 1.000000
vt 0.000000 0.000000
vt 1.000000 0.000000
vt 1.000000 1.000000
vt 0.000000 1.000000
vt 0.000000 0.000000
vt 1.000000 0.000000
vt 1.000000 1.000000
vt 0.000000 1.000000
vt 0.000000 0.000000
vt 1.000000 0.000000
vt 1.000000 1.000000
vt 0.000000 1.000000
vt 0.000000 0.000000
vt 1.000000 0.000000
vt 1.000000 1.000000
vt 0.000000 1.000000
vt 0.639710 0.000000
vt 1.000000 0.000000
vt 1.000000 1.000000
vt 0.639710 1.000000
vt 0.000000 0.000000
vt 0.364766 0.000000
vt 0.364766 1.000000
vt 0.000000 1.000000
vt 0.000000 0.000000
vt 1.000000 0.000000
vt 1.000000 1.000000
vt 0.000000 1.000000
vt 0.576790 0.000000
vt 1.000000 0.000000
vt 1.000000 1.000000
vt 0.576790 1.000000
vt 0.000000 0.000000
vt 0.424472 0.000000
vt 0.424472 1.000000
vt 0.000000 1.000000
vt 0.000000 0.000000
vt 1.000000 0.000000
vt 1.000000 1.000000
vt 0.000000 1.000000
vt 0.000000 0.687210
vt 1.000000 0.687210
vt 1.000000 1.000000
vt 0.000000 1.000000
vt 0.000000 0.000000
vt 1.000000 0.000000
vt 1.000000 0.364334
vt 0.000000 0.364334
vt 0.000000 0.639277
vt 1.000000 0.639277
vt 1.000000 1.000000
vt 0.000000 1.000000
vt 0.000000 0.123491
vt 1.000000 0.123491
vt 1.000000 0.436092
vt 0.000000 0.436092
vt 0.000000 0.000000
vt 1.000000 0.000000
vt 0.846591 0.000000
vt 0.846591 1.000000
vt 0.000000 0.000000
vt 1.000000 0.000000
vt 1.000000 1.000000
vt 0.000000 1.000000
vt 0.000000 0.000000
vt 1.000000 0.000000
vt 1.000000 1.000000
vt 0.000000 1.000000
vt 0.000000 0.000000
vt 1.000000 0.000000
vt 1.000000 1.000000
vt 0.000000 1.000000
vt 0.000000 0.000000
vt 1.000000 0.000000
vt 1.000000 1.000000
vt 0.000000 1.000000
vt 0.000000 0.000000
vt 1.000000 0.000000
vt 1.000000 1.000000
vt 0.000000 1.000000
vt 0.000000 0.000000
vt 1.000000 0.000000
vt 1.000000 1.000000
vt 0.000000 1.000000
vt 0.000000 0.000000
vt 1.000000 0.000000
vt 1.000000 1.000000
vt 0.000000 1.000000
vt 0.000000 0.000000
vt 1.000000 0.000000
vt 1.000000 1.000000
vt 0.000000 1.000000
vt 0.000000 0.000000
vt 1.000000 0.000000
vt 1.000000 1.000000
vt 0.000000 1.000000
vt 0.000000 0.000000
vt 1.000000 0.000000
vt 1.000000 1.000000
vt 0.000000 1.000000
vt 0.000000 0.000000
vt 1.000000 0.000000
vt 1.000000 1.000000
vt 0.000000 1.000000
vt 0.000000 0.000000
vt 1.000000 0.000000
vt 1.000000 1.000000
vt 0.000000 1.000000
vt 0.000000 0.000000
vt 1.000000 0.000000
vt 1.000000 1.000000
vt 0.000000 1.000000
vt 0.000000 0.000000
vt 1.000000 0.000000
vt 1.000000 1.000000
vt 0.000000 1.000000
vt 0.000000 0.000000
vt 1.000000 0.000000
vt 1.000000 1.000000
vt 0.000000 1.000000
vt 0.000000 0.000000
vt 1.000000 0.000000
vt 1.000000 1.000000
vt 0.000000 1.000000
vt 0.000000 0.000000
vt 1.000000 0.000000
vt 1.000000 1.000000
vt 0.000000 1.000000
vt 0.000000 0.000000
vt 1.000000 0.000000
vt 1.000000 1.000000
vt 0.000000 1.000000
vt 0.000000 0.000000
vt 1.000000 0.000000
vt 1.000000 1.000000
vt 0.000000 1.000000
vt 0.000000 0.000000
vt 1.000000 0.000000
vt 1.000000 1.000000
vt 0.000000 1.000000
vt 0.000000 0.000000
vt 1.000000 0.000000
vt 1.000000 1.000000
vt 0.000000 1.000000
vt 0.000000 0.000000
vt 1.000000 0.000000
vt 1.000000 1.000000
vt 0.000000 1.000000
vt 0.000000 0.000000
vt 1.000000 0.000000
vt 1.000000 1.000000
vt 0.000000 1.000000
vt 0.000000 0.000000
vt 1.000000 0.000000
vt 1.000000 1.000000
vt 0.000000 1.000000
vt 0.000000 0.000000
vt 1.000000 0.000000
vt 1.000000 1.000000
vt 0.000000 1.000000
vt 0.000000 0.000000
vt 1.000000 0.000000
vt 1.000000 1.000000
vt 0.000000 1.000000
vt 0.000000 0.000000
vt 1.000000 0.000000
vt 1.000000 1.000000
vt 0.000000 1.000000
vt 0.000000 0.000000
vt 1.000000 0.000000
vt 1.000000 1.000000
vt 0.000000 1.000000
vt 0.000000 0.000000
vt 1.000000 0.000000
vt 1.000000 1.000000
vt 0.000000 1.000000
vt 0.000000 0.000000
vt 1.000000 0.000000
vt 1.000000 1.000000
vt 0.000000 1.000000
vt 0.000000 0.000000
vt 1.000000 0.000000
vt 1.000000 1.000000
vt 0.000000 1.000000
vt 0.000000 0.000000
vt 1.000000 0.000000
vt 1.000000 1.000000
vt 0.000000 1.000000
vt 0.000000 0.000000
vt 1.000000 0.000000
vt 1.000000 1.000000
vt 0.000000 1.000000
vt 0.000000 0.000000
vt 1.000000 0.000000
vt 1.000000 1.000000
vt 0.000000 1.000000
vt 0.000000 0.000000
vt 1.000000 0.000000
vt 1.000000 1.000000
vt 0.000000 1.000000
vt 0.000000 0.000000
vt 1.000000 0.000000
vt 1.000000 1.000000
vt 0.000000 1.000000
vt 0.000000 0.000000
vt 1.000000 0.000000
vt 1.000000 1.000000
vt 0.000000 1.000000
vt 0.000000 0.000000
vt 1.000000 0.000000
vt 1.000000 1.000000
vt 0.000000 1.000000
vt 0.000000 0.000000
vt 1.000000 0.000000
vt 1.000000 1.000000
vt 0.000000 1.000000
vt 0.000000 0.000000
vt 1.000000 0.000000
vt 1.000000 1.000000
vt 0.000000 1.000000
vt 0.000000 0.000000
vt 1.000000 0.000000
vt 1.000000 1.000000
vt 0.000000 1.000000
vt 0.000000 0.000000
vt 1.000000 0.000000
vt 1.000000 1.000000
vt 0.000000 1.000000
vn 0.000000 1.000000 0.000000
vn 0.000000 1.000000 -0.000000
vn 0.000000 1.000000 0.000000
vn 0.000000 1.000000 0.000000
vn 0.000000 1.000000 -0.000000
vn -0.000000 1.000000 -0.000000
vn 0.000000 1.000000 0.000000
vn 0.000000 1.000000 0.000000
vn -0.000000 1.000000 -0.000000
vn -0.000000 1.000000 0.000000
vn 0.000000 1.000000 0.000000
vn 0.000000 1.000000 -0.000000
vn 0.000000 1.000000 0.000000
vn -0.000000 1.000000 -0.000000
vn -0.000000 1.000000 -0.000000
vn 0.000000 1.000000 -0.000000
vn 0.000000 1.000000 0.000000
vn -0.000000 1.000000 -0.000000
vn -0.000000 1.000000 -0.000000
vn 0.000000 1.000000 -0.000000
vn -0.000000 1.000000 0.000000
vn 0.000000 1.000000 -0.000000
vn -0.000000 1.000000 -0.000000
vn 0.000000 1.000000 -0.000000
vn 0.000000 1.000000 0.000000
vn 0.000000 1.000000 0.000000
vn 0.000000 1.000000 0.000000
vn 0.000000 1.000000 0.000000
vn 0.000000 1.000000 0.000000
vn -0.000000 1.000000 0.000000
vn 0.000000 1.000000 0.000000
vn -0.000000 1.000000 0.000000
vn 0.000000 1.000000 0.000000
vn 0.000000 1.000000 0.000000
vn 0.000000 1.000000 0.000000
vn 0.000000 1.000000 0.000000
vn -0.000000 1.000000 0.000000
vn 0.000000 1.000000 -0.000000
vn 0.000000 1.000000 -0.000000
vn 0.000000 1.000000 -0.000000
vn 0.000000 1.000000 -0.000000
vn -0.000000 1.000000 0.000000
vn 0.000000 1.000000 0.000000
vn -0.000000 1.000000 0.000000
vn -0.000000 1.000000 0.000000
vn -0.000000 1.000000 -0.000000
vn 0.000000 1.000000 0.000000
vn 0.000000 1.000000 0.000000
vn -0.000000 1.000000 0.000000
vn 0.000000 1.000000 0.000000
vn 1.000000 0.000000 0.000000
vn 1.000000 0.000000 0.000000
vn 1.000000 0.000000 0.000000
vn 1.000000 0.000000 0.000000
vn -1.000000 0.000000 0.000000
vn -1.000000 0.000000 0.000000
vn -1.000000 0.000000 0.000000
vn -1.000000 0.000000 0.000000
vn 1.000000 0.000000 0.000000
vn 1.000000 0.000000 0.000000
vn 0.000000 0.000000 -1.000000
vn 0.000000 0.000000 -1.000000
vn 0.000000 0.000000 -1.000000
vn 0.000000 0.000000 -1.000000
vn 0.000000 0.000000 1.000000
vn 0.000000 0.000000 1.000000
vn 0.000000 0.000000 1.000000
vn 0.000000 0.000000 1.000000
vn -1.000000 0.000000 0.000000
vn -1.000000 0.000000 0.000000
vn -1.000000 0.000000 0.000000
vn -1.000000 0.000000 0.000000
vn 1.000000 0.000000 0.000000
vn 1.000000 0.000000 0.000000
vn -1.000000 0.000000 0.000000
vn -1.000000 0.000000 0.000000
vn -1.000000 0.000000 0.000000
vn -1.000000 0.000000 0.000000
vn 0.000000 0.000000 1.000000
vn 0.000000 0.000000 1.000000
vn 0.000000 0.000000 1.000000
vn 0.000000 0.000000 1.000000
vn 1.000000 0.000000 0.000000
vn 1.000000 0.000000 -0.000000
vn 1.000000 0.000000 -0.000000
vn 1.000000 0.000000 -0.000000
vn 0.000000 0.000000 1.000000
vn 0.000000 0.000000 1.000000
vn 0.000000 0.000000 1.000000
vn 0.000000 0.000000 1.000000
vn 0.000000 0.000000 1.000000
vn 0.000000 0.000000 1.000000
vn 0.000000 0.000000 1.000000
vn 0.000000 0.000000 1.000000
vn 0.000001 0.000000 1.000000
vn 0.000000 0.000000 1.000000
vn 0.000000 0.000000 1.000000
vn -0.000001 0.000000 1.000000
vn -1.000000 0.000000 0.000000
vn -1.000000 0.000000 0.000000
vn -1.000000 0.000000 0.000000
vn -1.000000 0.000000 0.000000
vn 0.000000 0.000000 1.000000
vn -0.000000 0.000000 1.000000
vn -0.000000 0.000000 1.000000
vn -0.000000 0.000000 1.000000
vn 1.000000 0.000000 0.000000
vn 1.000000 0.000000 0.000000
vn 1.000000 0.000000 0.000000
vn 1.000000 0.000000 0.000000
vn -1.000000 0.000000 -0.000000
vn -1.000000 0.000000 -0.000000
vn -1.000000 0.000000 -0.000000
vn -1.000000 0.000000 -0.000000
vn 0.000000 0.000000 1.000000
vn 0.000000 0.000000 1.000000
vn 0.000000 0.000000 1.000000
vn 0.000000 0.000000 1.000000
vn 0.000000 0.000000 1.000000
vn 0.000000 0.000000 1.000000
vn 0.000000 0.000000 1.000000
vn 0.000000 0.000000 1.000000
vn 0.000000 0.000000 1.000000
vn 0.000001 0.000000 1.000000
vn 0.000001 0.000000 1.000000
vn 0.000002 0.000000 1.000000
vn 1.000000 0.000000 0.000000
vn 1.000000 0.000000 0.000000
vn 1.000000 0.000000 0.000000
vn 1.000000 0.000000 0.000000
vn -1.000000 0.000000 0.000000
vn -1.000000 0.000000 0.000000
vn -1.000000 0.000000 0.000000
vn -1.000000 0.000000 0.000000
vn 0.000000 0.000000 -1.000000
vn 0.000000 0.000000 -1.000000
vn 0.000000 0.000000 -1.000000
vn 0.000000 0.000000 -1.000000
vn 1.000000 0.000000 0.000000
vn 1.000000 0.000000 0.000000
vn 1.000000 0.000000 0.000000
vn 1.000000 0.000000 0.000000
vn -1.000000 0.000000 0.000000
vn -1.000000 0.000000 0.000000
vn 0.000000 0.000000 1.000000
vn 0.000000 0.000000 1.000000
vn 0.000000 0.000000 1.000000
vn 0.000000 0.000000 1.000000
vn -0.000000 0.000000 -1.000000
vn -0.000000 0.000000 -1.000000
vn 0.000000 0.000000 1.000000
vn 0.000000 0.000000 1.000000
vn 0.000000 0.000000 1.000000
vn 0.000000 0.000000 1.000000
vn 0.000000 0.000000 -1.000000
vn -0.000000 0.000000 -1.000000
vn -0.000002 0.000000 1.000000
vn -0.000001 0.000000 1.000000
vn -0.000001 0.000000 1.000000
vn 0.000000 0.000000 1.000000
vn 0.000000 0.000000 -1.000000
vn 0.000000 0.000000 -1.000000
vn 0.000000 0.000000 -1.000000
vn 0.000000 0.000000 -1.000000
vn 0.000000 0.000000 1.000000
vn 0.000000 0.000000 1.000000
vn -1.000000 0.000000 0.000000
vn -1.000000 0.000000 0.000000
vn -1.000000 0.000000 0.000000
vn -1.000000 0.000000 0.000000
vn 0.000000 0.000000 -1.000000
vn 0.000000 0.000000 -1.000000
vn 0.000000 0.000000 -1.000000
vn 0.000000 0.000000 -1.000000
vn 1.000000 0.000000 0.000000
vn 1.000000 0.000000 0.000000
vn 1.000000 0.000000 0.000000
vn 1.000000 0.000000 0.000000
vn 0.000000 0.000000 -1.000000
vn 0.000000 0.000000 -1.000000
vn 0.000000 0.000000 -1.000000
vn 0.000000 0.000000 -1.000000
vn 0.000000 0.000000 -1.000000
vn 0.000000 0.000000 -1.000000
vn 0.000000 0.000000 -1.000000
vn 0.000000 0.000000 -1.000000
vn 0.000000 0.000000 -1.000000
vn 0.000000 0.000000 -1.000000
vn 0.000000 0.000000 1.000000
vn 0.000000 0.000000 1.000000
s 1
g pasted__pPlane1
usemtl initialShadingGroup
f 1/1/1 2/2/2 3/3/3
f 3/3/3 2/2/2 4/4/4
f 3/5/3 4/6/4 5/8/5
f 5/8/5 4/6/4 6/7/6
f 6/9/6 4/10/4 8/12/7
f 8/12/7 4/10/4 7/11/8
f 5/13/5 6/14/6 9/16/9
f 9/16/9 6/14/6 10/15/10
f 11/17/11 12/18/12 13/20/13
f 13/20/13 12/18/12 1/19/1
f 1/21/1 12/22/12 2/24/2
f 2/24/2 12/22/12 14/23/14
f 2/25/2 14/26/14 16/28/15
f 16/28/15 14/26/14 15/27/16
f 24/29/17 18/30/18 23/32/19
f 23/32/19 18/30/18 20/31/20
f 17/33/21 22/34/22 19/36/23
f 19/36/23 22/34/22 21/35/24
f 22/34/22 24/29/17 21/35/24
f 21/35/24 24/29/17 23/32/19
f 25/37/25 26/38/26 27/40/27
f 27/40/27 26/38/26 28/39/28
s 6
f 35/41/29 9/71/30 34/44/31
f 34/44/31 9/71/30 44/72/32
f 29/45/33 33/46/34 30/48/35
f 30/48/35 33/46/34 32/47/36
f 33/46/34 35/41/29 32/47/36
f 32/47/36 35/41/29 34/44/31
s 1
f 27/49/27 28/50/28 18/52/37
f 18/52/37 28/50/28 36/51/38
f 14/53/14 42/54/39 15/56/40
f 15/56/40 42/54/39 37/55/41
f 27/57/27 18/58/37 40/60/42
f 40/60/42 18/58/37 24/59/17
f 39/61/43 22/62/22 38/64/44
f 38/64/44 22/62/22 17/63/45
f 40/60/42 24/59/17 39/61/43
f 39/61/43 24/59/17 22/62/22
f 11/65/46 43/66/47 12/68/12
f 12/68/12 43/66/47 41/67/48
f 12/68/12 41/67/48 14/53/14
f 14/53/14 41/67/48 42/54/39
f 36/69/38 28/70/28 11/65/46
f 11/65/46 28/70/28 43/66/47
s 6
f 9/71/30 10/42/49 44/72/32
f 44/72/32 10/42/49 31/43/50
s 10
f 1/73/51 3/74/52 45/76/53
f 45/76/53 3/74/52 46/75/54
s 11
f 4/77/55 2/78/56 48/80/57
f 48/80/57 2/78/56 47/79/58
s 10
f 3/81/52 5/82/59 46/84/54
f 46/84/54 5/82/59 49/83/60
s 12
f 7/85/61 4/86/62 50/88/63
f 50/88/63 4/86/62 48/87/64
s 13
f 6/89/65 8/90/66 51/92/67
f 51/92/67 8/90/66 52/91/68
s 14
f 8/93/69 7/94/70 52/96/71
f 52/96/71 7/94/70 50/95/72
s 10
f 5/97/59 9/98/73 49/100/60
f 49/100/60 9/98/73 53/99/74
s 15
f 10/101/75 6/102/76 54/104/77
f 54/104/77 6/102/76 51/103/78
s 16
f 11/105/79 12/106/80 55/108/81
f 55/108/81 12/106/80 56/107/82
s 17
f 11/109/83 13/110/84 55/112/85
f 55/112/85 13/110/84 57/111/86
s 18
f 13/113/87 1/114/88 57/116/89
f 57/116/89 1/114/88 45/115/90
s 19
f 14/117/91 15/118/92 58/120/93
f 58/120/93 15/118/92 59/119/94
s 20
f 2/121/95 16/122/96 47/124/97
f 47/124/97 16/122/96 60/123/98
s 21
f 16/125/99 15/126/100 60/128/101
f 60/128/101 15/126/100 59/127/102
s 22
f 17/129/103 22/130/104 61/132/105
f 61/132/105 22/130/104 62/131/106
s 23
f 17/133/107 19/134/108 61/136/109
f 61/136/109 19/134/108 63/135/110
s 24
f 20/137/111 18/138/112 65/140/113
f 65/140/113 18/138/112 64/139/114
s 25
f 19/141/115 21/142/116 63/144/117
f 63/144/117 21/142/116 66/143/118
f 21/145/116 23/146/119 66/148/118
f 66/148/118 23/146/119 67/147/120
f 23/149/119 20/150/121 67/152/120
f 67/152/120 20/150/121 65/151/122
s 26
f 24/153/123 18/154/124 68/156/125
f 68/156/125 18/154/124 64/155/126
s 27
f 25/157/127 27/158/128 69/160/129
f 69/160/129 27/158/128 70/159/130
s 28
f 28/161/131 26/162/132 72/164/133
f 72/164/133 26/162/132 71/163/134
s 29
f 33/165/135 29/166/136 74/168/137
f 74/168/137 29/166/136 73/167/138
s 30
f 29/169/139 30/170/140 73/172/141
f 73/172/141 30/170/140 75/171/142
s 15
f 31/173/143 10/174/75 76/176/144
f 76/176/144 10/174/75 54/175/77
s 31
f 30/177/145 32/178/146 75/180/147
f 75/180/147 32/178/146 77/179/148
s 29
f 35/181/149 33/182/135 78/184/150
f 78/184/150 33/182/135 74/183/137
s 32
f 34/185/151 44/186/152 79/188/153
f 79/188/153 44/186/152 80/187/154
s 29
f 9/189/155 35/190/149 53/192/156
f 53/192/156 35/190/149 78/191/150
s 33
f 18/193/157 36/194/158 64/196/159
f 64/196/159 36/194/158 81/195/160
s 34
f 43/197/161 28/198/162 82/200/163
f 82/200/163 28/198/162 72/199/164
s 33
f 36/201/158 11/202/165 81/204/160
f 81/204/160 11/202/165 55/203/166
s 35
f 15/205/167 37/206/168 59/208/169
f 59/208/169 37/206/168 83/207/170
s 36
f 27/209/171 40/210/172 70/212/173
f 70/212/173 40/210/172 84/211/174
s 37
f 38/213/175 17/214/176 85/216/177
f 85/216/177 17/214/176 61/215/178
s 36
f 39/217/179 38/218/180 86/220/181
f 86/220/181 38/218/180 85/219/182
f 40/221/172 39/222/179 84/224/174
f 84/224/174 39/222/179 86/223/181
s 34
f 42/225/183 41/226/184 88/228/185
f 88/228/185 41/226/184 87/227/186
f 37/229/187 42/230/183 83/232/188
f 83/232/188 42/230/183 88/231/185
f 41/233/184 43/234/161 87/236/186
f 87/236/186 43/234/161 82/235/163
s 32
f 44/237/152 31/238/189 80/240/154
f 80/240/154 31/238/189 76/239/190
